<svg width="15" height="11" viewBox="0 0 15 11" fill="none" xmlns="http://www.w3.org/2000/svg">
<g id="icons">
<path id="Vector" d="M13.9777 0H1.02227C0.457685 0 0 0.444382 0 0.992555V10.0074C0 10.5556 0.457685 11 1.02227 11H13.9777C14.5423 11 15 10.5556 15 10.0074V0.992555C15 0.444382 14.5423 0 13.9777 0Z" fill="#B81734"/>
<path id="Vector_2" d="M7.41904 7.1215C7.33132 7.1215 7.2436 7.09202 7.17275 7.03305L1.37316 2.18165C1.21459 2.04735 1.19435 1.81477 1.33267 1.66081C1.471 1.50685 1.71054 1.49047 1.86911 1.6215L7.6687 6.46962C7.82727 6.60393 7.84752 6.83651 7.70919 6.99047C7.63497 7.07564 7.527 7.11822 7.41904 7.11822V7.1215Z" fill="white"/>
<path id="Vector_3" d="M7.58095 7.12151C7.47299 7.12151 7.3684 7.07893 7.2908 6.99376C7.15248 6.8398 7.17272 6.60722 7.33129 6.47291L13.1309 1.62479C13.2895 1.49048 13.529 1.51014 13.6673 1.6641C13.8056 1.81806 13.7854 2.05064 13.6268 2.18495L7.82724 7.03307C7.75639 7.09203 7.66867 7.12151 7.58095 7.12151Z" fill="white"/>
<path id="Vector_4" d="M13.3806 9.46695C13.2929 9.46695 13.2051 9.43747 13.1343 9.37851L8.88665 5.82759C8.72808 5.69328 8.70783 5.4607 8.84616 5.30674C8.98449 5.15278 9.22403 5.13312 9.3826 5.26743L13.6302 8.81835C13.7888 8.95266 13.809 9.18524 13.6707 9.3392C13.5965 9.42437 13.4885 9.46695 13.3806 9.46695Z" fill="white"/>
<path id="Vector_5" d="M1.6194 9.46695C1.51144 9.46695 1.40685 9.42437 1.32925 9.3392C1.19093 9.18524 1.21117 8.95266 1.36974 8.81835L5.60388 5.27726C5.76245 5.14295 6.00199 5.1626 6.14032 5.31657C6.27865 5.47053 6.2584 5.70311 6.09983 5.83741L1.86569 9.37851C1.79484 9.43747 1.70712 9.46695 1.6194 9.46695Z" fill="white"/>
</g>
</svg>
