<svg width="153" height="109" viewBox="0 0 153 109" fill="none" xmlns="http://www.w3.org/2000/svg">
<g id="logo_altra_consulting_dark_bg 1">
<g id="LOGO">
<path id="Vector" d="M8.44604 101.02C10.3723 101.02 11.4589 100.276 12.134 99.5656C12.809 98.8881 12.9572 98.4751 13.2206 98.4751C13.4182 98.4751 13.5499 98.6072 13.5499 98.8055C13.5499 99.1525 11.5248 103.019 6.32218 103.019C2.97999 103.019 0 100.276 0 96.575C0 91.519 5.30141 87.884 9.0552 87.884C11.8705 87.884 14.4389 89.8502 14.4389 92.4608C14.4389 93.8157 13.484 95.0053 12.101 95.0053C10.8827 95.0053 10.2077 94.0966 10.2077 92.973C10.2077 91.5851 10.9156 90.8746 10.9156 89.7511C10.9156 89.2389 10.3394 88.6606 8.89056 88.6606C5.77887 88.6606 3.72087 92.1965 3.72087 95.7158C3.72087 98.7725 5.64715 101.036 8.42957 101.036" fill="#91AEB9"/>
<path id="Vector_2" d="M32.0389 94.5096C32.0389 98.7229 28.0217 103.002 22.9014 103.002C20.0531 103.002 16.0688 101.102 16.0688 96.3767C16.0688 92.1634 20.0861 87.8675 25.2228 87.8675C28.0876 87.8675 32.0554 89.7676 32.0554 94.5096M25.3216 88.4458C22.0453 88.4458 19.9873 93.4026 19.9873 98.3594C19.9873 100.739 21.008 102.407 22.8191 102.407C26.0954 102.407 28.1534 97.4506 28.1534 92.4938C28.1534 90.1146 27.1327 88.4458 25.3216 88.4458Z" fill="#91AEB9"/>
<path id="Vector_3" d="M40.6496 93.4191C42.4442 89.5859 44.3705 87.884 46.5931 87.884C48.931 87.884 50.0012 89.305 50.0012 91.5521C50.0012 93.4852 48.1078 99.3508 48.1078 100.441C48.1078 101.02 48.4535 101.532 49.1615 101.532C49.9682 101.532 50.742 100.788 51.2195 99.863C51.8616 98.6072 51.7628 98.095 52.125 98.095C52.3555 98.095 52.4543 98.2272 52.4543 98.5081C52.4543 98.8881 51.1701 103.019 47.581 103.019C45.7534 103.019 44.7162 101.548 44.7162 100.028C44.7162 98.3264 46.6096 92.0477 46.6096 90.3294C46.6096 89.5859 46.165 89.1728 45.523 89.1728C43.6296 89.1728 40.9624 93.6174 40.0404 97.1532L38.5093 103.019C37.9001 102.887 37.3239 102.705 36.7147 102.705C36.1055 102.705 35.5293 102.771 34.9201 103.019L37.2909 92.3286C37.4885 91.519 37.5873 91.0068 37.5873 90.3955C37.5873 89.5528 37.1757 89.1728 36.7806 89.1728C36.2702 89.1728 35.5293 89.652 34.9531 90.6268C33.9652 92.2956 34.0969 93.0391 33.7347 93.0391C33.5372 93.0391 33.4548 92.94 33.4548 92.7252C33.4548 91.8825 35.1506 87.9006 38.0812 87.9006C39.6453 87.9006 40.9953 89.0902 40.9953 91.0564C40.9953 91.9651 40.8307 92.5434 40.6496 93.3696L40.7155 93.4356H40.6496V93.4191Z" fill="#91AEB9"/>
<path id="Vector_4" d="M61.2132 87.8675C63.6498 87.8675 66.5475 89.0902 66.5475 91.2546C66.5475 92.1634 65.9383 92.8243 64.9999 92.8243C61.3449 92.8243 64.72 88.4458 60.9497 88.4458C59.2869 88.4458 57.9039 89.3711 57.9039 90.6763C57.9039 93.6009 65.3785 93.8322 65.3785 98.0785C65.3785 100.97 63.1065 103.002 58.7106 103.002C54.3147 103.002 52.9318 100.854 52.9318 99.4334C52.9318 98.3098 53.7385 97.5663 54.6934 97.5663C58.0027 97.5663 54.891 102.424 59.0564 102.424C60.9827 102.424 62.3656 101.515 62.3656 99.8134C62.3656 96.5584 55.2696 96.8228 55.2696 92.246C55.2696 89.9659 57.5417 87.8675 61.1967 87.8675" fill="#91AEB9"/>
<path id="Vector_5" d="M78.7638 98.0455C77.3479 100.97 75.4546 103.002 73.1496 103.002C70.5812 103.002 69.4946 101.201 69.4946 99.4664C69.4946 96.6906 71.5197 91.3538 71.5197 90.0981C71.5197 89.5198 71.1904 89.0406 70.4824 89.0406C69.6757 89.0406 68.9183 89.685 68.0787 91.4529C67.8482 91.9321 67.7659 92.3617 67.5024 92.3617C67.3378 92.3617 67.239 92.2625 67.239 92.0643C67.239 91.7173 68.4574 87.884 71.7666 87.884C73.7258 87.884 74.9112 88.8423 74.9112 91.0729C74.9112 92.973 72.8862 98.8716 72.8862 100.441C72.8862 101.317 73.3636 101.978 74.2362 101.978C76.4424 101.978 78.5992 97.4672 79.0437 95.6662L80.97 87.9997C81.5133 88.231 82.0895 88.4458 82.7646 88.4458C83.5055 88.4458 84.0817 88.1484 84.4933 87.9997C83.3079 93.8983 82.0237 99.5986 82.0237 100.342C82.0237 101.086 82.2871 101.73 82.9292 101.73C83.9006 101.73 84.7896 100.16 85.3 98.6403C85.4317 98.2603 85.4647 97.8637 85.7446 97.8637C85.9421 97.8637 85.9915 98.062 85.9915 98.1777C85.9915 98.5081 84.839 103.002 81.5956 103.002C79.6364 103.002 78.6156 101.714 78.6156 99.5821C78.6156 98.9047 78.7144 98.4255 78.8132 98.095L78.7474 98.029L78.7638 98.0455Z" fill="#91AEB9"/>
<path id="Vector_6" d="M91.3752 83.1751C91.3752 81.6715 89.0044 81.9524 89.0044 81.308C89.0044 80.5314 90.4861 81.1097 95.804 79.2427C94.454 86.0996 91.7209 99.0203 91.7209 100.078C91.7209 100.689 91.9514 101.135 92.5277 101.135C93.4003 101.135 94.0424 100.226 94.4869 99.4003C94.9644 98.4916 95.129 98.1116 95.3266 98.1116C95.5571 98.1116 95.6558 98.2437 95.6558 98.442C95.6558 98.7064 94.207 103.019 90.7496 103.019C89.4654 103.019 88.1483 102.242 88.1483 99.9951C88.1483 98.7725 91.3917 84.4804 91.3917 83.1751" fill="#91AEB9"/>
<path id="Vector_7" d="M107.461 89.999H103.74C102.9 94.4105 101.846 98.6899 101.846 99.5986C101.846 100.788 102.719 101.35 103.509 101.35C104.662 101.35 105.435 100.772 106.11 100.21C106.522 99.863 106.654 99.6978 106.753 99.6978C106.917 99.6978 107 99.7969 107 99.9456C107 100.226 105.172 103.002 101.599 103.002C99.0639 103.002 98.109 101.813 98.109 99.9125C98.109 98.9542 99.0639 95.1871 100.134 89.999H97.6974C99.1791 89.0076 102.735 86.364 105.073 83.5551H105.139L104.118 88.1319H108.3L107.461 89.999Z" fill="#91AEB9"/>
<path id="Vector_8" d="M115.61 90.5442C115.61 91.9652 113.322 99.4004 113.322 100.276C113.322 100.953 113.635 101.334 114.277 101.334C115.396 101.334 116.269 99.6978 116.68 98.789C116.878 98.3759 116.977 98.2107 117.092 98.2107C117.257 98.2107 117.388 98.3099 117.388 98.4751C117.388 98.6073 116.269 103.019 112.416 103.019C110.902 103.019 109.716 102.061 109.716 100.193C109.716 98.1281 111.988 91.7173 111.988 90.2964C111.988 89.685 111.626 89.3711 111.181 89.3711C110.605 89.3711 109.864 89.9163 109.156 91.106C108.481 92.2626 108.383 92.973 108.103 92.973C107.971 92.973 107.872 92.8739 107.872 92.7252C107.872 92.0478 109.502 87.9006 112.91 87.9006C114.573 87.9006 115.577 88.925 115.577 90.5773M115.643 80.2341C116.927 80.2341 117.948 81.2585 117.948 82.4481C117.948 83.5716 116.96 85.0587 115.281 85.0587C114.507 85.0587 112.992 84.6456 112.992 82.6794C112.992 81.4567 114.178 80.2341 115.627 80.2341" fill="#91AEB9"/>
<path id="Vector_9" d="M125.587 93.4191C127.382 89.5859 129.308 87.884 131.531 87.884C133.869 87.884 134.923 89.305 134.923 91.5521C134.923 93.4852 133.029 99.3508 133.029 100.441C133.029 101.02 133.391 101.532 134.083 101.532C134.89 101.532 135.663 100.788 136.141 99.863C136.783 98.6072 136.684 98.095 137.046 98.095C137.277 98.095 137.359 98.2272 137.359 98.5081C137.359 98.8881 136.075 103.019 132.486 103.019C130.658 103.019 129.621 101.548 129.621 100.028C129.621 98.3264 131.514 92.0477 131.514 90.3294C131.514 89.5859 131.07 89.1728 130.411 89.1728C128.518 89.1728 125.851 93.6174 124.929 97.1532L123.381 103.019C122.772 102.887 122.196 102.705 121.587 102.705C120.978 102.705 120.401 102.771 119.792 103.019L122.163 92.3286C122.361 91.519 122.459 91.0068 122.459 90.3955C122.459 89.5528 122.048 89.1728 121.653 89.1728C121.142 89.1728 120.401 89.652 119.825 90.6268C118.837 92.2956 118.969 93.0391 118.607 93.0391C118.409 93.0391 118.31 92.94 118.31 92.7252C118.31 91.8825 120.006 87.9006 122.937 87.9006C124.501 87.9006 125.851 89.0902 125.851 91.0564C125.851 91.9651 125.686 92.5434 125.505 93.3696L125.571 93.4356H125.587V93.4191Z" fill="#91AEB9"/>
<path id="Vector_10" d="M142.562 96.5088C140.866 96.0297 139.549 94.807 139.549 92.8738C139.549 90.3954 141.854 87.917 146.711 87.884C147.32 85.8848 148.67 84.0177 151.008 84.0177C152.424 84.0177 153 84.7943 153 85.6534C153 86.4631 152.391 87.4214 151.14 87.4214C149.888 87.4214 149.757 86.6778 148.736 86.6778C147.715 86.6778 147.649 87.4214 147.583 87.8675C150.497 88.2805 152.49 89.6684 152.49 91.866C152.49 95.8975 148.16 96.9549 144.109 96.9549C141.64 96.9549 140.586 97.6985 140.586 98.7064C140.586 102.176 151.666 98.5742 151.666 104.043C151.666 107.876 146.925 109 142.397 109C138.709 109 135.779 108.058 135.779 106.042C135.779 104.489 136.585 103.812 138.857 102.854C138.018 102.308 137.507 101.532 137.507 100.54C137.507 98.0289 139.845 96.9715 142.578 96.5749V96.5088H142.562ZM142.364 108.24C146.892 108.24 148.686 107.216 148.686 105.629C148.686 103.217 144.966 104.308 139.516 103.283C138.232 103.63 137.425 104.44 137.425 105.563C137.425 106.687 138.248 108.24 142.364 108.24ZM145.212 96.3932C146.365 96.3932 147.369 95.6827 147.88 94.3609C148.291 93.3365 148.752 91.9486 148.752 91.0068C148.752 89.2389 147.978 88.4623 146.661 88.4623C144.636 88.4623 143.27 91.3538 143.27 94.0635C143.27 95.187 143.714 96.3767 145.229 96.3767" fill="#91AEB9"/>
<path id="Vector_11" d="M37.6696 66.735H31.2487V61.4973H31.084C27.7912 65.6941 23.3789 67.7759 18.0775 67.7759C6.9972 67.7759 0 58.3415 0 47.8661C0 37.3908 6.83256 27.8076 18.1433 27.8076C23.2801 27.8076 27.9394 30.2199 31.0676 34.2515H31.2322V28.8485H37.6532V66.7185L37.6696 66.735ZM6.60207 47.387C6.60207 54.8056 10.9321 61.8113 18.9665 61.8113C27.001 61.8113 31.578 55.1196 31.578 47.4696C31.578 39.8196 26.8363 33.7723 18.8842 33.7723C11.426 33.7723 6.60207 40.2987 6.60207 47.387Z" fill="#112237"/>
<path id="Vector_12" d="M56.4386 0H50.0176V66.4707H56.4386V0Z" fill="#112237"/>
<path id="Vector_13" d="M75.0759 0.313904H68.6549V66.735H75.0759V0.313904Z" fill="#112237"/>
<path id="Vector_14" d="M96.6766 32.9627H96.8413C99.0968 29.9886 101.023 27.8076 105.189 27.8076C107.362 27.8076 109.123 28.5346 110.967 29.5755L107.922 35.4576C106.637 34.5654 105.748 33.7558 104.069 33.7558C97.0059 33.7558 96.6766 42.8598 96.6766 47.767V66.702H90.2557V28.832H96.6766V32.9462V32.9627Z" fill="#112237"/>
<path id="Vector_15" d="M152.193 66.735H145.772V61.4973H145.608C142.315 65.6941 137.903 67.7759 132.601 67.7759C121.521 67.7759 114.54 58.3415 114.54 47.8661C114.54 37.3908 121.373 27.8076 132.683 27.8076C137.82 27.8076 142.48 30.2199 145.608 34.2515H145.772V28.8485H152.193V66.7185V66.735ZM121.126 47.387C121.126 54.8056 125.456 61.8113 133.49 61.8113C141.525 61.8113 146.102 55.1196 146.102 47.4696C146.102 39.8196 141.36 33.7723 133.408 33.7723C125.933 33.7723 121.126 40.2987 121.126 47.387Z" fill="#112237"/>
<path id="Vector_16" d="M0.0164795 73.9389H153" stroke="#91AEB9" stroke-width="2.6" stroke-miterlimit="10"/>
<path id="Vector_17" d="M84.7896 13.9286H68.6549V19.8933H84.7896V13.9286Z" fill="#E20413"/>
</g>
</g>
</svg>
