<svg width="11" height="15" viewBox="0 0 11 15" fill="none" xmlns="http://www.w3.org/2000/svg">
<g id="icons">
<path id="Vector" d="M10.8918 13.0213L9.14698 10.8483C9.00268 10.6673 8.69439 10.5224 8.46153 10.5257H8.4353C8.04829 10.5323 7.67113 10.6113 7.30709 10.7397C6.6118 10.9833 5.53607 10.8846 4.14549 8.46797C2.73852 6.01845 3.22063 5.04062 3.78801 4.56652C4.08318 4.31959 4.32915 4.01669 4.52921 3.68746C4.64728 3.48662 4.6768 3.14751 4.59481 2.93021L3.59451 0.325956C3.51252 0.10866 3.2567 -0.0329112 3.03041 0.00988947L2.99433 0.0164742C1.52504 0.286448 0.360758 1.43548 0.0983845 2.91046C-0.239421 4.80686 0.311563 7.33539 1.7579 9.85076C3.26982 12.4781 5.28026 14.2658 7.15623 14.8453C8.47465 15.2535 9.90787 14.8222 10.7999 13.7687L10.8852 13.6666C11.0361 13.4888 11.0393 13.1991 10.8918 13.018V13.0213Z" fill="#B81734"/>
</g>
</svg>
