<svg width="11" height="15" viewBox="0 0 11 15" fill="none" xmlns="http://www.w3.org/2000/svg">
<g id="icons">
<path id="Vector" d="M11 5.2842C11 7.55567 7.59603 12.5472 6.08609 14.6532C5.74834 15.1241 5.01987 15.1177 4.69205 14.6405C3.24172 12.5249 0 7.54931 0 5.2842C0 2.36691 2.46358 0 5.5 0C8.53642 0 11 2.36691 11 5.2842Z" fill="#B81734"/>
<path id="Vector_2" d="M5.50002 7.73383C7.0435 7.73383 8.29473 6.5317 8.29473 5.04879C8.29473 3.56588 7.0435 2.36374 5.50002 2.36374C3.95655 2.36374 2.70532 3.56588 2.70532 5.04879C2.70532 6.5317 3.95655 7.73383 5.50002 7.73383Z" fill="white"/>
</g>
</svg>
