<svg width="15" height="15" viewBox="0 0 15 15" fill="none" xmlns="http://www.w3.org/2000/svg">
<g id="icons">
<path id="Vector" d="M15 7.5C15 11.6433 11.6441 15 7.50181 15C3.35951 15 0 11.6433 0 7.5C0 3.35669 3.35588 0 7.49819 0C11.6405 0 14.9964 3.35669 14.9964 7.5" fill="#B81734"/>
<path id="Vector_2" d="M10.7816 11.3134H9.43705V10.2223H9.40443C8.71586 11.0959 7.79535 11.5309 6.69001 11.5309C4.37786 11.5309 2.91736 9.56984 2.91736 7.38763C2.91736 5.20542 4.34162 3.2117 6.70813 3.2117C7.78085 3.2117 8.7521 3.71557 9.40806 4.55293H9.44067V3.4292H10.7852V11.3098L10.7816 11.3134ZM4.29088 7.28976C4.29088 8.83398 5.19327 10.2912 6.87121 10.2912C8.54915 10.2912 9.50228 8.89923 9.50228 7.30426C9.50228 5.70928 8.51291 4.45505 6.85309 4.45505C5.29474 4.45505 4.29088 5.81441 4.29088 7.28613" fill="white"/>
<path id="Vector_3" d="M10.7852 11.3171L14.2209 6.14429H12.8763L9.44434 11.3171H10.7852Z" fill="white"/>
<path id="Vector_4" d="M12.2059 7.15564H13.5504L14.2209 6.14429H12.8763L12.2059 7.15564Z" fill="white"/>
</g>
</svg>
